<?xml version="1.0" encoding="UTF-8"?>
<svg xmlns="http://www.w3.org/2000/svg" xmlns:xlink="http://www.w3.org/1999/xlink" width="50pt" height="50pt" viewBox="0 0 50 50" version="1.1">
<g id="surface1">
<path style=" stroke:none;fill-rule:nonzero;fill:rgb(100%,100%,100%);fill-opacity:1;" d="M 25 12 C 25.828125 12 26.5 13.34375 26.5 15 C 26.5 16.65625 25.828125 18 25 18 C 24.171875 18 23.5 16.65625 23.5 15 C 23.5 13.34375 24.171875 12 25 12 Z M 25 12 "/>
<path style=" stroke:none;fill-rule:nonzero;fill:rgb(100%,100%,100%);fill-opacity:1;" d="M 31.5 13.742188 C 32.21875 14.15625 32.128906 15.65625 31.300781 17.089844 C 30.46875 18.523438 29.21875 19.351562 28.5 18.9375 C 27.78125 18.523438 27.871094 17.023438 28.699219 15.589844 C 29.53125 14.15625 30.78125 13.328125 31.5 13.742188 Z M 31.5 13.742188 "/>
<path style=" stroke:none;fill-rule:nonzero;fill:rgb(100%,100%,100%);fill-opacity:1;" d="M 36.257812 18.5 C 36.671875 19.21875 35.84375 20.46875 34.410156 21.300781 C 32.976562 22.128906 31.476562 22.21875 31.0625 21.5 C 30.648438 20.78125 31.476562 19.53125 32.910156 18.699219 C 34.34375 17.871094 35.84375 17.78125 36.257812 18.5 Z M 36.257812 18.5 "/>
<path style=" stroke:none;fill-rule:nonzero;fill:rgb(100%,100%,100%);fill-opacity:1;" d="M 38 25 C 38 25.828125 36.65625 26.5 35 26.5 C 33.34375 26.5 32 25.828125 32 25 C 32 24.171875 33.34375 23.5 35 23.5 C 36.65625 23.5 38 24.171875 38 25 Z M 38 25 "/>
<path style=" stroke:none;fill-rule:nonzero;fill:rgb(100%,100%,100%);fill-opacity:1;" d="M 36.257812 31.5 C 35.84375 32.21875 34.34375 32.128906 32.910156 31.300781 C 31.476562 30.46875 30.648438 29.21875 31.0625 28.5 C 31.476562 27.78125 32.976562 27.871094 34.410156 28.699219 C 35.84375 29.53125 36.671875 30.78125 36.257812 31.5 Z M 36.257812 31.5 "/>
<path style=" stroke:none;fill-rule:nonzero;fill:rgb(100%,100%,100%);fill-opacity:1;" d="M 31.5 36.257812 C 30.78125 36.671875 29.53125 35.84375 28.699219 34.410156 C 27.871094 32.976562 27.78125 31.476562 28.5 31.0625 C 29.21875 30.648438 30.46875 31.476562 31.300781 32.910156 C 32.128906 34.34375 32.21875 35.84375 31.5 36.257812 Z M 31.5 36.257812 "/>
<path style=" stroke:none;fill-rule:nonzero;fill:rgb(100%,100%,100%);fill-opacity:1;" d="M 25 38 C 24.171875 38 23.5 36.65625 23.5 35 C 23.5 33.34375 24.171875 32 25 32 C 25.828125 32 26.5 33.34375 26.5 35 C 26.5 36.65625 25.828125 38 25 38 Z M 25 38 "/>
<path style=" stroke:none;fill-rule:nonzero;fill:rgb(100%,100%,100%);fill-opacity:1;" d="M 18.5 36.257812 C 17.78125 35.84375 17.871094 34.34375 18.699219 32.910156 C 19.53125 31.476562 20.78125 30.648438 21.5 31.0625 C 22.21875 31.476562 22.128906 32.976562 21.300781 34.410156 C 20.46875 35.84375 19.21875 36.671875 18.5 36.257812 Z M 18.5 36.257812 "/>
<path style=" stroke:none;fill-rule:nonzero;fill:rgb(100%,100%,100%);fill-opacity:1;" d="M 13.742188 31.5 C 13.328125 30.78125 14.15625 29.53125 15.589844 28.699219 C 17.023438 27.871094 18.523438 27.78125 18.9375 28.5 C 19.351562 29.21875 18.523438 30.46875 17.089844 31.300781 C 15.65625 32.128906 14.15625 32.21875 13.742188 31.5 Z M 13.742188 31.5 "/>
<path style=" stroke:none;fill-rule:nonzero;fill:rgb(100%,100%,100%);fill-opacity:1;" d="M 12 25 C 12 24.171875 13.34375 23.5 15 23.5 C 16.65625 23.5 18 24.171875 18 25 C 18 25.828125 16.65625 26.5 15 26.5 C 13.34375 26.5 12 25.828125 12 25 Z M 12 25 "/>
<path style=" stroke:none;fill-rule:nonzero;fill:rgb(100%,100%,100%);fill-opacity:1;" d="M 13.742188 18.5 C 14.15625 17.78125 15.65625 17.871094 17.089844 18.699219 C 18.523438 19.53125 19.351562 20.78125 18.9375 21.5 C 18.523438 22.21875 17.023438 22.128906 15.589844 21.300781 C 14.15625 20.46875 13.328125 19.21875 13.742188 18.5 Z M 13.742188 18.5 "/>
<path style=" stroke:none;fill-rule:nonzero;fill:rgb(100%,100%,100%);fill-opacity:1;" d="M 18.5 13.742188 C 19.21875 13.328125 20.46875 14.15625 21.300781 15.589844 C 22.128906 17.023438 22.21875 18.523438 21.5 18.9375 C 20.78125 19.351562 19.53125 18.523438 18.699219 17.089844 C 17.871094 15.65625 17.78125 14.15625 18.5 13.742188 Z M 18.5 13.742188 "/>
</g>
</svg>
